<svg width="941" height="318" viewBox="0 0 941 318" fill="none" xmlns="http://www.w3.org/2000/svg">
<path d="M13.2588 5.21932H117.841C135.271 5.21932 147.888 9.20341 155.69 17.1716C163.659 24.9738 167.641 37.59 167.641 55.0204V79.9209C167.641 97.3512 163.659 110.051 155.69 118.019C147.888 125.821 135.271 129.722 117.841 129.722H58.0798V179.523H13.2588V5.21932ZM122.821 55.0204C122.821 45.06 117.841 40.08 107.881 40.08H58.0798V94.8613H107.881C117.841 94.8613 122.821 89.881 122.821 79.9209V55.0204ZM180.083 143.417C220.587 145.907 247.979 147.152 262.254 147.152C266.072 147.152 269.06 146.073 271.218 143.915C273.543 141.591 274.705 138.52 274.705 134.702V111.047H208.468V76.1857H274.705V55.0204C274.705 45.06 269.725 40.08 259.765 40.08H182.572V5.21932H269.725C287.155 5.21932 299.772 9.20341 307.573 17.1716C315.541 24.9738 319.525 37.59 319.525 55.0204V134.702C319.525 150.97 315.707 162.923 308.072 170.559C300.435 178.195 288.483 182.013 272.216 182.013C247.314 182.013 216.604 180.353 180.083 177.033V143.417ZM386.289 182.013C377.989 182.013 369.439 181.183 360.641 179.523V145.907H383.051C387.865 145.907 391.184 143.998 393.011 140.18C393.842 138.52 394.256 136.777 394.256 134.951C394.256 132.959 393.842 131.216 393.011 129.722L324.534 5.21932H374.337L419.157 93.6162L456.507 5.21932H506.308L442.813 142.172C437.002 155.286 430.03 165.081 421.897 171.555C412.932 178.527 401.062 182.013 386.289 182.013ZM484.101 142.172H528.924V179.523H484.101V142.172ZM551.392 5.21932H655.973C673.404 5.21932 686.021 9.20341 693.824 17.1716C701.792 24.9738 705.776 37.59 705.776 55.0204V79.9209C705.776 97.3512 701.792 110.051 693.824 118.019C686.021 125.821 673.404 129.722 655.973 129.722H596.213V179.523H551.392V5.21932ZM660.956 55.0204C660.956 45.06 655.974 40.08 646.014 40.08H596.213V94.8613H646.014C655.974 94.8613 660.956 89.881 660.956 79.9209V55.0204ZM924.891 117.272C924.891 134.702 920.907 147.401 912.937 155.37C905.136 163.172 892.519 167.073 875.089 167.073H845.21V184.503H800.389V167.073H770.508C753.077 167.073 740.378 163.172 732.409 155.37C724.607 147.401 720.707 134.702 720.707 117.272V67.4706C720.707 50.0403 724.607 37.424 732.409 29.6219C740.378 21.6537 753.077 17.6696 770.508 17.6696H800.389V0.239258H845.21V17.6696H875.089C892.519 17.6696 905.136 21.6537 912.937 29.6219C920.907 37.424 924.891 50.0403 924.891 67.4706V117.272ZM880.068 67.4706C880.068 57.5103 875.089 52.5302 865.129 52.5302H842.718V132.212H865.129C875.089 132.212 880.068 127.232 880.068 117.272V67.4706ZM765.528 117.272C765.528 127.232 770.508 132.212 780.467 132.212H802.878V52.5302H780.467C770.508 52.5302 765.528 57.5103 765.528 67.4706V117.272Z" fill="white"/>
<path d="M0.837891 222.946H940.514" stroke="white" stroke-width="15.0262" stroke-miterlimit="10"/>
<path d="M58.8027 316.761H45.2791V284.455L27.2475 316.761H12.9727V264.17H26.4962V296.476L44.5278 264.17H58.8027V316.761ZM112.932 287.46L102.414 306.243H91.8954L81.3771 287.46V316.761H67.8535V264.17H82.1284L97.1545 291.968L112.181 264.17H126.456V316.761H112.932V287.46ZM177.198 316.761H135.501V264.17H177.198V274.688H149.024V284.83H171.187V295.348H149.024V306.243H177.198V316.761ZM229.022 316.761H215.498V295.348H196.714V316.761H183.19V264.17H196.714V284.83H215.498V264.17H229.022V316.761ZM283.902 316.761H270.379V284.455L252.347 316.761H238.073V264.17H251.596V296.476L269.627 264.17H283.902V316.761ZM329 316.761H315.476V264.17H356.423V274.688H329V316.761ZM351.962 305.492H365.485V316.761H351.962V305.492ZM372.265 264.17H402.319C407.226 264.17 410.834 265.296 413.136 267.55C415.441 269.755 416.594 273.135 416.594 277.694C416.594 280.699 415.942 283.152 414.639 285.056C413.338 286.909 411.733 288.212 409.832 288.963C413.888 290.065 416.642 292.768 418.096 297.077C418.597 298.63 418.847 300.432 418.847 302.486C418.847 307.395 417.695 311.001 415.39 313.306C413.087 315.609 409.479 316.761 404.573 316.761H372.265V264.17ZM405.324 300.232C405.324 297.227 403.821 295.725 400.816 295.725H385.79V306.243H400.816C403.821 306.243 405.324 304.74 405.324 301.735V300.232ZM403.07 279.196C403.07 276.191 401.568 274.688 398.562 274.688H385.79V285.207H398.562C401.568 285.207 403.07 283.704 403.07 280.699V279.196ZM423.351 305.492H436.876V316.761H423.351V305.492ZM512.008 316.761H498.485V274.688H479.702V316.761H466.179V264.17H512.008V316.761ZM536.837 305.866C536.586 309.474 535.436 312.329 533.381 314.432C531.327 316.486 528.798 317.512 525.793 317.512C522.788 317.512 519.958 317.262 517.303 316.761V306.617H520.685C521.636 306.617 522.413 306.294 523.014 305.642C523.666 304.991 524.016 304.188 524.064 303.238L526.318 264.17H568.016V316.761H554.493V274.688H538.716L536.837 305.866ZM618.739 316.761H577.041V264.17H618.739V274.688H590.564V284.83H612.729V295.348H590.564V306.243H618.739V316.761ZM655.16 264.17H670.186L653.281 290.466L670.561 316.761H655.535L645.017 300.232L634.499 316.761H619.473L636.752 290.466L619.849 264.17H634.8L645.017 280.699L655.16 264.17ZM683.721 316.761H669.072L688.98 264.17H704.006L723.916 316.761H709.265L705.885 307.369H687.103L683.721 316.761ZM690.482 297.602H702.503L696.493 279.947L690.482 297.602ZM773.5 316.761H759.976V295.348H741.194V316.761H727.67V264.17H741.194V284.83H759.976V264.17H773.5V316.761ZM816.359 278.445C816.359 275.44 814.856 273.937 811.851 273.937H799.079C796.074 273.937 794.571 275.44 794.571 278.445V302.486C794.571 305.492 796.074 306.994 799.079 306.994H811.851C814.856 306.994 816.359 305.492 816.359 302.486V278.445ZM829.882 302.486C829.882 307.745 828.681 311.577 826.277 313.982C823.923 316.336 820.116 317.512 814.856 317.512H796.074C790.815 317.512 786.983 316.336 784.579 313.982C782.225 311.577 781.048 307.745 781.048 302.486V278.445C781.048 273.186 782.225 269.378 784.579 267.025C786.983 264.62 790.815 263.419 796.074 263.419H814.856C820.116 263.419 823.923 264.62 826.277 267.025C828.681 269.378 829.882 273.186 829.882 278.445V302.486ZM837.431 264.17H867.485C872.392 264.17 876 265.296 878.302 267.55C880.607 269.755 881.76 273.135 881.76 277.694C881.76 280.699 881.108 283.152 879.805 285.056C878.504 286.909 876.899 288.212 874.998 288.963C879.054 290.065 881.808 292.768 883.262 297.077C883.763 298.63 884.014 300.432 884.014 302.486C884.014 307.395 882.861 311.001 880.556 313.306C878.254 315.609 874.646 316.761 869.739 316.761H837.431V264.17ZM870.49 300.232C870.49 297.227 868.988 295.725 865.982 295.725H850.954V306.243H865.982C868.988 306.243 870.49 304.74 870.49 301.735V300.232ZM868.236 279.196C868.236 276.191 866.734 274.688 863.728 274.688H850.954V285.207H863.728C866.734 285.207 868.236 283.704 868.236 280.699V279.196ZM900.163 316.761H885.512L905.422 264.17H920.448L940.359 316.761H925.707L922.327 307.369H903.543L900.163 316.761ZM906.925 297.602H918.945L912.935 279.947L906.925 297.602Z" fill="white"/>
</svg>
